<svg width="68" height="33" viewBox="0 0 68 33" fill="none" xmlns="http://www.w3.org/2000/svg">
<path d="M1.82048 16.3891C1.56229 5.34368 13.6159 -2.41422 24.1953 3.64832C27.6806 5.64557 30.6392 8.6036 33.8205 11.8343C33.9651 11.9812 34.0319 11.966 34.1673 11.8296C39.1432 6.81355 46.348 -0.834946 56.4397 2.14084C60.6867 3.39317 63.6379 6.1486 65.1498 10.3006C70.21 24.1967 55.6947 35.7016 43.2473 28.075C40.1079 26.1515 37.3967 23.4973 34.1919 20.2335C34.0209 20.0592 33.9437 20.0839 33.7873 20.2416C30.1463 23.9132 26.2272 27.9041 21.3863 29.5748C11.5355 32.9746 2.09208 27.1046 1.82048 16.3891ZM7.98465 16.175C8.29871 22.5554 13.2066 25.5297 18.4358 24.3987C22.9551 23.4212 26.7461 19.4466 29.9751 16.1274C30.0839 16.0155 30.0229 15.9701 29.9481 15.9004C27.1436 13.2826 24.4048 10.0849 20.9531 8.43931C14.2632 5.25001 7.96214 9.92722 7.98465 16.175ZM60.0018 15.9053C59.803 9.73919 54.9384 6.37897 49.3327 7.69384C44.9221 8.72837 41.1532 12.6842 38.0219 15.9015C37.9132 16.0131 37.955 16.0652 38.044 16.1483C41.9591 19.8019 46.5792 25.5706 52.8213 24.5192C56.9791 23.8189 60.0111 20.1974 60.0018 15.9053Z" fill="#FF4D00"/>
</svg>
